<svg xmlns="http://www.w3.org/2000/svg" viewBox="0 0 64 64" fill="none">
  <!-- Sun -->
  <circle cx="26" cy="22" r="10" fill="#FBBF24"/>
  <line x1="26" y1="6" x2="26" y2="10" stroke="#FBBF24" stroke-width="2.5" stroke-linecap="round"/>
  <line x1="26" y1="34" x2="26" y2="38" stroke="#FBBF24" stroke-width="2.5" stroke-linecap="round"/>
  <line x1="10" y1="22" x2="14" y2="22" stroke="#FBBF24" stroke-width="2.5" stroke-linecap="round"/>
  <line x1="38" y1="22" x2="42" y2="22" stroke="#FBBF24" stroke-width="2.5" stroke-linecap="round"/>
  <line x1="14.9" y1="10.9" x2="17.8" y2="13.8" stroke="#FBBF24" stroke-width="2.5" stroke-linecap="round"/>
  <line x1="34.2" y1="30.2" x2="37.1" y2="33.1" stroke="#FBBF24" stroke-width="2.5" stroke-linecap="round"/>
  <line x1="37.1" y1="10.9" x2="34.2" y2="13.8" stroke="#FBBF24" stroke-width="2.5" stroke-linecap="round"/>
  <line x1="17.8" y1="30.2" x2="14.9" y2="33.1" stroke="#FBBF24" stroke-width="2.5" stroke-linecap="round"/>
  <!-- Cloud -->
  <path d="M52 42a8 8 0 0 0-7.2-7.96A10 10 0 0 0 26 36a6 6 0 0 0 0 12h26a6 6 0 0 0 0-12z" fill="#93C5FD"/>
</svg>
